# xmcd
#
# Track frame offsets:
#	183
#	16458
#	32158
#
# Disc length: 760 seconds
#
# Revision: 5
# Processed by: cddbd v1.5.2PL0 Copyright (c) Steve Scherf et al.
# Submitted via: audiograbber 1.83.01
#
DISCID=1c02f603
DTITLE=Matthias Reim - Ich hab' mich so auf dich gefreut
DYEAR=2004
DGENRE=Blues
TTITLE0=Ich hab' mich so auf dich gefreut 7"
TTITLE1=Du fehlst mir
TTITLE2=Ich hab' mich so auf dich gefreut 12"
EXTD=
EXTT0=
EXTT1=
EXTT2=
PLAYORDER=
